<svg xmlns="http://www.w3.org/2000/svg" width="24" height="29" viewBox="0 0 24 29" fill="none">
  <path d="M19.5507 12.0924C20.067 11.0309 20.4272 9.69946 20.4272 8.04243C20.4272 5.76919 19.5322 3.71149 17.9068 2.248C16.303 0.80392 14.1332 0.0407788 11.6319 0.0407788L3.01251 0C1.34881 0 0 1.36964 0 3.05904V29H15.0785C20.7089 29 24 24.2309 24 19.929C24 16.6609 22.2133 13.6705 19.5514 12.0924H19.5507ZM11.6312 2.27777C15.6777 2.27777 18.2242 4.74067 18.2242 8.04243C18.2242 12.4737 14.9357 14.5003 11.6083 14.5003C8.48232 14.5003 5.90773 11.886 5.90773 7.83401V5.59701C5.90773 4.12834 5.04273 2.80983 3.70412 2.37551V2.27777H11.6306H11.6312Z" fill="#EA5F1F"/>
</svg>